<?xml version="1.0" standalone="no"?>
<!DOCTYPE svg PUBLIC "-//W3C//DTD SVG 20010904//EN"
 "http://www.w3.org/TR/2001/REC-SVG-20010904/DTD/svg10.dtd">
<svg version="1.0" xmlns="http://www.w3.org/2000/svg"
 width="3840.000000pt" height="2160.000000pt" viewBox="0 0 3840.000000 2160.000000"
 preserveAspectRatio="xMidYMid meet">

<g transform="translate(0.000000,2160.000000) scale(0.100000,-0.100000)"
fill="#000000" stroke="none">
<path d="M18135 18859 c-365 -37 -614 -74 -765 -116 -30 -8 -77 -21 -105 -28
-59 -14 -377 -121 -420 -140 -16 -8 -59 -26 -95 -40 -83 -35 -396 -191 -431
-216 -15 -10 -30 -19 -32 -19 -9 0 -139 -82 -178 -112 -20 -15 -40 -28 -43
-28 -7 0 -198 -139 -206 -150 -3 -4 -12 -11 -21 -16 -51 -29 -280 -237 -409
-370 -97 -101 -230 -253 -290 -333 -14 -18 -36 -47 -50 -65 -14 -17 -29 -39
-35 -48 -5 -9 -43 -64 -82 -121 -40 -58 -73 -108 -73 -111 0 -3 -25 -45 -55
-94 -102 -168 -214 -401 -284 -592 -80 -216 -82 -220 -104 -220 -11 0 -34 -4
-51 -10 -17 -5 -78 -21 -136 -36 -110 -27 -352 -104 -407 -129 -17 -8 -36 -15
-42 -15 -6 0 -19 -4 -29 -9 -9 -6 -55 -26 -102 -46 -148 -63 -359 -170 -450
-229 -19 -12 -42 -26 -50 -29 -20 -9 -48 -28 -170 -112 -56 -38 -112 -77 -124
-85 -205 -140 -645 -575 -801 -794 -11 -16 -29 -40 -40 -55 -49 -63 -156 -226
-237 -361 -63 -104 -196 -362 -225 -436 -6 -16 -25 -61 -42 -101 -17 -39 -31
-78 -31 -86 0 -7 -3 -17 -7 -21 -11 -11 -46 -110 -92 -266 -46 -153 -51 -170
-61 -220 -5 -25 -16 -79 -26 -120 -72 -328 -103 -766 -76 -1085 23 -272 42
-398 102 -670 30 -136 133 -469 151 -490 5 -5 9 -15 9 -23 0 -7 9 -34 21 -60
11 -26 24 -56 29 -67 62 -149 191 -401 259 -509 33 -53 61 -99 61 -101 0 -20
260 -371 340 -457 67 -74 70 -87 42 -176 -132 -408 -198 -928 -172 -1359 18
-311 35 -439 99 -735 62 -288 239 -746 398 -1028 27 -48 96 -168 108 -188 50
-81 175 -261 250 -357 33 -42 69 -88 80 -103 43 -56 115 -134 284 -302 155
-154 270 -254 422 -368 24 -18 67 -50 96 -72 29 -22 55 -40 59 -40 3 0 24 -13
47 -28 68 -47 156 -102 162 -102 3 0 36 -18 72 -41 100 -60 329 -169 488 -231
122 -48 178 -68 331 -118 177 -58 512 -124 769 -152 136 -14 655 -15 785 -1
130 14 300 39 360 52 104 23 104 23 231 -106 165 -168 344 -330 454 -408 15
-11 39 -29 54 -40 14 -11 33 -24 42 -30 9 -5 64 -43 124 -82 59 -40 109 -73
111 -73 2 0 35 -20 74 -45 39 -25 148 -83 243 -129 204 -99 209 -102 357 -156
63 -23 124 -46 135 -51 11 -4 47 -16 80 -25 33 -9 79 -23 103 -31 23 -7 49
-13 57 -13 9 0 23 -4 33 -10 19 -10 221 -54 322 -70 295 -45 509 -64 710 -64
126 0 438 19 475 29 11 3 56 10 100 15 137 17 321 51 415 77 30 8 78 21 105
28 80 20 362 116 430 145 11 5 49 21 85 35 83 34 395 190 431 216 15 10 30 19
32 19 9 0 139 82 178 112 20 15 40 28 43 28 8 0 224 160 291 216 213 176 493
464 635 653 14 18 36 47 50 65 14 17 30 39 35 48 6 9 43 64 83 122 39 58 72
107 72 111 0 3 18 34 39 68 108 173 217 397 297 610 89 238 82 224 117 230 55
10 160 34 217 52 30 9 87 25 125 36 77 23 193 63 242 85 17 8 36 14 42 14 6 0
19 4 29 9 9 6 55 26 102 46 152 65 364 173 452 231 21 13 40 24 42 24 6 0 240
156 291 195 148 110 240 189 390 335 179 173 336 347 420 464 11 15 31 43 45
61 47 63 85 120 151 225 37 58 77 121 90 140 25 40 198 379 216 425 6 17 25
62 42 102 17 39 31 78 31 86 0 7 3 17 7 21 11 11 46 110 92 266 46 153 51 170
61 220 5 25 16 79 26 120 72 328 103 766 76 1085 -23 272 -42 398 -102 670
-30 136 -133 469 -151 490 -5 5 -9 15 -9 23 0 7 -9 34 -21 60 -11 26 -24 56
-29 67 -32 76 -101 219 -189 392 -8 16 -40 70 -73 121 -32 51 -58 95 -58 97 0
7 -106 160 -170 244 -30 41 -69 93 -86 115 -17 23 -56 69 -88 103 -63 68 -66
82 -38 171 64 197 97 346 132 602 12 80 25 172 30 205 37 239 7 859 -54 1120
-3 11 -12 56 -22 100 -75 354 -234 778 -411 1095 -25 44 -95 166 -108 188 -50
81 -175 261 -250 357 -33 42 -69 88 -80 103 -116 153 -497 517 -691 659 -16
11 -60 44 -97 72 -37 28 -71 51 -73 51 -3 0 -20 10 -37 23 -52 36 -157 99
-252 150 -22 12 -42 25 -45 28 -13 15 -310 153 -435 202 -122 47 -178 67 -331
117 -177 58 -512 124 -769 152 -136 14 -655 15 -785 1 -130 -14 -300 -39 -360
-52 -102 -23 -109 -20 -207 82 -163 169 -363 351 -477 432 -16 11 -40 29 -55
40 -14 11 -33 25 -42 30 -9 6 -64 43 -124 83 -59 39 -109 72 -111 72 -2 0 -35
20 -74 45 -56 36 -355 188 -445 226 -64 27 -158 63 -210 80 -33 11 -69 24 -80
29 -39 17 -218 70 -237 70 -10 0 -26 4 -36 10 -33 19 -274 65 -497 96 -237 32
-604 48 -760 33z m425 -1049 c69 -5 154 -14 190 -19 164 -25 207 -32 240 -41
19 -5 73 -19 120 -30 92 -23 99 -25 240 -71 52 -17 99 -35 105 -40 5 -5 15 -9
21 -9 11 0 94 -36 214 -93 84 -40 267 -145 345 -199 42 -29 87 -60 99 -68 55
-37 146 -116 146 -127 0 -6 -12 -18 -27 -26 -16 -8 -71 -39 -123 -69 -334
-193 -439 -254 -472 -275 -21 -12 -40 -23 -42 -23 -3 0 -46 -25 -96 -55 -50
-30 -93 -55 -96 -55 -2 0 -21 -11 -42 -23 -20 -13 -62 -38 -92 -55 -49 -27
-242 -139 -415 -239 -33 -20 -80 -47 -105 -61 -25 -13 -70 -39 -100 -57 -30
-18 -113 -66 -185 -107 -71 -42 -186 -108 -255 -148 -69 -40 -150 -87 -180
-103 -30 -17 -104 -60 -165 -95 -60 -36 -139 -82 -175 -102 -36 -20 -139 -79
-230 -132 -91 -52 -253 -146 -360 -207 -159 -91 -206 -123 -253 -173 -69 -73
-120 -175 -136 -269 -8 -46 -11 -730 -11 -2342 0 -1252 -3 -2277 -7 -2277 -10
0 -44 20 -338 190 -126 73 -243 141 -260 150 -284 162 -754 436 -768 448 -17
15 -18 107 -14 2056 4 2241 -1 2043 57 2340 108 553 403 1097 825 1522 282
283 552 468 945 646 87 40 230 91 345 123 33 9 71 21 85 26 25 8 74 19 210 44
253 48 513 63 760 45z m4085 -1284 c197 -33 298 -54 370 -77 17 -5 59 -18 95
-28 89 -26 272 -93 345 -125 33 -15 60 -27 60 -26 0 0 60 -31 133 -70 685
-361 1203 -972 1454 -1715 31 -91 37 -113 64 -220 76 -303 103 -608 84 -933
-6 -107 -16 -206 -21 -219 -5 -13 -9 -39 -9 -58 0 -19 -3 -36 -8 -39 -4 -2
-40 15 -80 40 -40 24 -77 44 -82 44 -6 0 -10 5 -10 10 0 6 -5 10 -10 10 -10 0
-296 162 -382 217 -21 12 -39 23 -41 23 -3 0 -208 117 -247 141 -32 20 -154
91 -485 279 -99 57 -245 141 -325 188 -265 154 -394 229 -505 293 -60 34 -191
109 -289 166 -99 57 -183 103 -188 103 -4 0 -8 4 -8 9 0 5 -10 13 -22 17 -13
4 -58 29 -101 55 -43 27 -80 49 -82 49 -2 0 -100 56 -217 123 -279 162 -298
172 -333 182 -16 4 -39 11 -50 14 -28 8 -205 7 -235 -1 -89 -24 -101 -30 -290
-141 -47 -27 -114 -66 -150 -87 -61 -35 -160 -92 -450 -260 -315 -183 -451
-260 -459 -260 -5 0 -11 -3 -13 -8 -3 -7 -159 -99 -278 -165 -30 -16 -66 -38
-80 -47 -14 -9 -88 -52 -165 -95 -77 -43 -184 -104 -237 -137 -54 -32 -99 -58
-102 -58 -2 0 -44 -24 -93 -54 -49 -29 -109 -64 -133 -78 -40 -22 -182 -103
-296 -169 -22 -13 -115 -66 -205 -118 -90 -52 -207 -120 -259 -151 -52 -31
-120 -71 -150 -87 -109 -61 -127 -71 -250 -143 -68 -40 -140 -82 -160 -93
-123 -69 -195 -111 -237 -137 -26 -16 -51 -30 -55 -30 -4 0 -8 357 -8 793 0
619 3 797 13 809 6 9 48 36 92 61 44 24 179 102 300 172 121 70 290 167 375
216 85 49 160 92 165 96 10 8 229 134 310 179 22 12 102 58 179 103 76 44 140
81 142 81 2 0 44 24 92 53 70 43 434 254 612 355 49 28 312 180 330 191 22 14
435 252 493 284 27 15 91 52 141 82 185 108 452 229 611 275 17 5 55 17 85 26
139 41 303 73 525 104 100 14 627 4 730 -14z m-8363 -3588 c3 -1956 3 -1963
24 -2019 61 -167 129 -234 384 -379 41 -24 104 -60 140 -80 59 -34 263 -152
559 -324 62 -36 115 -66 117 -66 2 0 34 -19 71 -41 38 -23 102 -61 143 -84 87
-49 298 -170 320 -185 8 -5 42 -24 75 -43 33 -18 132 -75 220 -126 88 -51 185
-107 215 -124 30 -17 83 -48 118 -69 34 -21 64 -38 66 -38 3 0 49 -26 103 -58
54 -33 132 -78 173 -102 41 -23 100 -57 130 -75 30 -18 71 -42 91 -53 19 -11
96 -55 170 -98 213 -124 291 -169 339 -196 91 -51 567 -326 639 -369 40 -24
74 -48 75 -52 0 -5 -57 -43 -129 -84 -71 -41 -186 -108 -255 -148 -69 -40
-145 -84 -170 -98 -133 -74 -206 -117 -217 -127 -7 -5 -14 -10 -16 -10 -2 0
-98 -54 -213 -121 -359 -208 -365 -211 -388 -205 -11 3 -75 37 -141 77 -66 39
-140 82 -165 95 -25 14 -90 52 -145 85 -55 33 -108 63 -117 66 -10 3 -18 9
-18 14 0 5 -5 9 -10 9 -6 0 -54 26 -108 57 -53 31 -126 73 -162 93 -59 34
-291 168 -445 258 -72 42 -174 100 -269 154 -38 21 -74 42 -80 47 -6 4 -31 20
-56 34 -71 39 -223 127 -365 209 -71 42 -146 85 -165 95 -20 11 -92 53 -160
93 -69 40 -143 83 -165 95 -22 13 -80 46 -130 75 -49 29 -110 64 -135 77 -25
14 -65 38 -90 53 -25 14 -76 45 -115 67 -214 123 -328 192 -395 237 -206 137
-413 320 -579 511 -518 597 -779 1338 -747 2125 9 219 22 324 65 532 60 288
198 630 366 908 256 424 605 771 1036 1033 73 44 334 177 374 190 11 4 40 15
65 26 25 10 51 19 57 20 10 1 13 -411 15 -1961z m7103 1073 c28 -15 104 -59
170 -98 270 -158 321 -187 342 -197 13 -6 23 -14 23 -18 0 -5 5 -8 10 -8 6 0
54 -26 108 -57 53 -31 126 -73 162 -93 36 -21 135 -78 220 -127 215 -125 343
-199 425 -246 39 -22 95 -54 125 -72 30 -18 71 -42 90 -53 118 -67 241 -138
355 -204 72 -42 146 -85 165 -95 20 -11 92 -53 160 -93 69 -40 150 -87 180
-103 30 -17 95 -55 144 -84 49 -29 90 -53 92 -53 3 0 37 -19 77 -43 39 -24
104 -62 142 -84 39 -22 126 -74 195 -114 345 -201 582 -400 844 -709 12 -14
53 -68 92 -120 292 -393 480 -843 563 -1353 32 -189 37 -593 11 -817 -13 -112
-45 -285 -75 -400 -135 -519 -436 -1035 -824 -1408 -165 -160 -353 -304 -552
-425 -70 -43 -317 -167 -384 -194 -17 -6 -47 -19 -69 -27 -21 -9 -42 -16 -47
-16 -5 0 -10 870 -12 1963 -3 2156 3 1980 -61 2105 -56 112 -121 163 -416 332
-36 20 -119 69 -185 107 -129 76 -216 126 -273 159 -21 11 -93 53 -161 92 -68
40 -125 72 -127 72 -2 0 -34 19 -71 41 -38 23 -102 61 -143 84 -94 53 -265
152 -305 176 -16 10 -57 33 -90 52 -33 18 -132 75 -220 126 -88 51 -185 107
-215 124 -30 17 -83 48 -118 69 -34 21 -64 38 -67 38 -2 0 -50 28 -107 61 -57
34 -132 78 -168 99 -36 20 -108 62 -160 92 -52 31 -153 89 -225 131 -71 41
-181 104 -244 141 -62 36 -115 66 -116 66 -2 0 -65 37 -141 81 -77 45 -161 94
-189 109 -27 15 -119 69 -204 119 -85 50 -159 92 -165 94 -19 7 2 22 169 117
88 51 201 116 250 145 50 29 110 64 135 78 113 63 206 117 216 124 5 4 19 13
30 19 45 25 502 288 529 305 40 25 51 24 110 -10z m-1977 -1310 c114 -65 277
-159 362 -208 85 -49 232 -134 325 -188 94 -53 213 -122 265 -153 52 -30 124
-72 160 -92 65 -37 337 -196 398 -232 l32 -20 0 -1008 0 -1008 -32 -20 c-60
-35 -332 -194 -398 -232 -36 -20 -94 -54 -130 -75 -36 -21 -153 -88 -260 -150
-107 -62 -267 -154 -355 -205 -88 -51 -189 -110 -225 -130 -36 -20 -129 -74
-208 -119 l-142 -82 -143 82 c-78 45 -171 99 -207 119 -180 102 -359 206 -390
225 -19 13 -100 60 -180 105 -80 45 -188 107 -240 138 -52 30 -124 72 -160 92
-36 21 -119 69 -185 108 -66 38 -137 79 -158 91 -21 12 -49 29 -63 37 l-24 16
0 1008 0 1008 123 73 c140 83 204 120 302 176 39 22 124 71 190 110 66 38 143
82 170 98 28 15 102 58 165 95 146 85 366 212 450 260 36 20 128 73 205 118
77 44 141 81 143 81 1 1 95 -52 210 -118z m2617 -1511 c127 -73 246 -142 266
-154 20 -12 177 -102 348 -201 172 -99 331 -191 355 -205 24 -14 51 -31 60
-39 16 -13 16 -164 13 -2055 -4 -2256 2 -2030 -61 -2346 -26 -132 -70 -295
-95 -355 -5 -11 -19 -49 -32 -85 -38 -112 -144 -337 -214 -455 -283 -480 -688
-875 -1170 -1142 -104 -58 -278 -138 -360 -167 -27 -10 -59 -22 -70 -26 -34
-13 -107 -37 -170 -55 -33 -9 -71 -20 -85 -25 -32 -10 -155 -37 -240 -51 -302
-51 -622 -60 -884 -24 -167 23 -239 35 -276 45 -19 5 -73 19 -120 30 -92 23
-99 25 -240 71 -52 17 -99 35 -105 40 -5 5 -15 9 -21 9 -7 0 -48 16 -91 36
-236 108 -312 151 -567 324 -56 38 -155 124 -150 131 2 4 17 14 32 22 15 8 56
31 92 52 80 46 84 49 295 170 94 54 187 109 207 121 21 13 40 24 43 24 2 0 33
17 67 38 35 21 88 52 118 69 46 26 300 173 555 321 33 19 80 46 105 60 25 13
70 39 100 57 30 18 114 66 185 107 72 42 186 108 255 148 69 40 150 87 180
103 30 17 105 60 165 95 61 36 139 82 175 102 36 20 139 80 230 132 91 53 253
146 360 207 159 92 206 123 253 173 69 73 120 175 136 269 8 46 11 728 11
2336 0 1248 3 2273 7 2276 7 8 29 -4 338 -183z m-1075 -3043 c0 -619 -3 -797
-12 -809 -7 -9 -44 -34 -83 -55 -65 -37 -324 -186 -688 -397 -82 -47 -153 -86
-157 -86 -5 0 -10 -3 -12 -8 -1 -4 -128 -79 -281 -167 -153 -88 -300 -172
-325 -187 -26 -15 -58 -33 -72 -41 -14 -7 -153 -88 -310 -179 -157 -90 -305
-176 -330 -190 -56 -32 -319 -185 -340 -197 -18 -11 -422 -244 -493 -284 -28
-15 -91 -52 -141 -81 -164 -96 -366 -192 -496 -235 -36 -12 -74 -25 -85 -30
-11 -5 -47 -17 -80 -26 -33 -10 -67 -20 -75 -23 -35 -13 -258 -59 -350 -73
-185 -27 -259 -31 -510 -26 -257 5 -300 9 -525 51 -474 88 -959 319 -1364 651
-299 244 -589 617 -768 985 -240 494 -335 974 -303 1530 7 113 16 213 21 222
5 9 9 32 9 52 0 19 3 37 8 40 4 2 40 -15 80 -40 40 -24 77 -44 82 -44 6 0 10
-4 10 -10 0 -5 4 -10 10 -10 10 0 242 -131 358 -202 34 -21 64 -38 67 -38 3 0
26 -13 52 -29 27 -15 93 -54 148 -86 55 -32 120 -70 145 -85 25 -15 92 -53
150 -86 58 -32 128 -73 157 -91 29 -18 54 -33 57 -33 2 0 75 -41 163 -92 87
-50 239 -138 338 -195 99 -57 187 -107 195 -113 8 -5 44 -26 80 -46 36 -21
173 -100 305 -177 132 -77 265 -153 295 -170 30 -16 79 -45 108 -63 29 -19 55
-34 58 -34 3 0 58 -31 122 -69 64 -38 133 -78 152 -88 19 -11 62 -36 95 -55
174 -102 241 -123 367 -115 46 3 90 7 98 9 8 3 33 10 55 16 22 7 66 28 98 47
32 19 60 35 63 35 2 0 33 18 68 40 35 22 66 40 70 40 3 0 35 17 69 38 34 21
100 60 147 87 47 27 166 96 265 153 401 232 506 292 514 292 5 0 11 3 13 8 3
7 159 99 278 165 30 16 66 38 80 47 14 9 88 52 165 95 77 43 184 104 237 137
54 32 99 58 102 58 2 0 44 24 93 54 49 29 109 64 133 78 25 14 94 53 155 88
60 35 118 68 130 74 11 6 52 30 90 53 148 87 452 263 650 375 11 6 74 43 140
81 66 39 135 79 155 90 123 69 195 111 237 137 26 16 51 30 55 30 4 0 8 -357
8 -793z"/>
</g>
</svg>
